<svg xmlns="http://www.w3.org/2000/svg" viewBox="0 0 512 512">
  <rect width="512" height="512" rx="112" fill="#86d8ff"/>
  <circle cx="172" cy="178" r="74" fill="#f7fbff" opacity=".86"/>
  <circle cx="340" cy="178" r="74" fill="#f7fbff" opacity=".86"/>
  <ellipse cx="256" cy="286" rx="138" ry="116" fill="#ffd94f"/>
  <path d="M161 236c22-36 58-58 95-58s73 22 95 58" fill="none" stroke="#18272f" stroke-width="22" stroke-linecap="round" opacity=".9"/>
  <path d="M166 286h180M184 346h144" fill="none" stroke="#18272f" stroke-width="30" stroke-linecap="round" opacity=".9"/>
  <circle cx="214" cy="268" r="13" fill="#18272f"/>
  <circle cx="298" cy="268" r="13" fill="#18272f"/>
  <path d="M228 312c17 15 39 15 56 0" fill="none" stroke="#18272f" stroke-width="16" stroke-linecap="round"/>
  <path d="M122 289l-44-34M390 289l44-34M256 402v48" fill="none" stroke="#18272f" stroke-width="20" stroke-linecap="round"/>
  <path d="M238 450h36l-18 30z" fill="#18272f"/>
</svg>
